REM DIRINDEX 1\8,1\2\11,1\3\12,1\3\14,1\5\15,1\5\16,1\6\17,1\6\18,1\4\19,1\4\20,1\4\21,1\4\22,1\7\23,1\7\24,1\7\25,1\2\9\26,1\2\9\27,1\2\10\28,1\2\10\29,1\2\10\30,1\2\10\31,1\2\10\32,1\3\13\33,1\3\13\34,1\3\13\35
REM DIRNAME cjc123,folder01,folder02,folder03,folder04,folder05,folder06,folder07,folder08,folder09,folder10,folder11,folder12,folder13,folder14,folder15,folder16,folder17,folder18,folder19,folder20,folder21,folder22,folder23,folder24,folder25,folder26,folder27,folder28,folder29,folder30,folder31,folder32,folder33,folder34
TITLE ""
FILE "109 109_UNIT6_WARM-UP-40.mp3" MP3
  TRACK 01 AUDIO
    TITLE "14:cjc123_2002"
    INDEX 01 00:00:00
  TRACK 02 AUDIO
    TITLE "0:"
    INDEX 01 00:02:65
  TRACK 03 AUDIO
    TITLE "12:cjc123_2003"
    INDEX 01 00:03:49
  TRACK 04 AUDIO
    TITLE "0:"
    INDEX 01 00:04:62
  TRACK 05 AUDIO
    TITLE "12:cjc123_2004"
    INDEX 01 00:05:38
  TRACK 06 AUDIO
    TITLE "0:"
    INDEX 01 00:06:43
  TRACK 07 AUDIO
    TITLE "12:cjc123_2005"
    INDEX 01 00:07:27
  TRACK 08 AUDIO
    TITLE "0:"
    INDEX 01 00:08:36
  TRACK 09 AUDIO
    TITLE "12:cjc123_2006"
    INDEX 01 00:09:26
  TRACK 10 AUDIO
    TITLE "0:"
    INDEX 01 00:10:29
  TRACK 11 AUDIO
    TITLE "12:cjc123_2007"
    INDEX 01 00:11:03
  TRACK 12 AUDIO
    TITLE "0:"
    INDEX 01 00:12:22
  TRACK 13 AUDIO
    TITLE "12:cjc123_2008"
    INDEX 01 00:12:73
  TRACK 14 AUDIO
    TITLE "0:"
    INDEX 01 00:14:06
  TRACK 15 AUDIO
    TITLE "12:cjc123_2009"
    INDEX 01 00:14:58
  TRACK 16 AUDIO
    TITLE "0:"
    INDEX 01 00:15:68
  TRACK 17 AUDIO
    TITLE "12:cjc123_2010"
    INDEX 01 00:16:44
  TRACK 18 AUDIO
    TITLE "0:"
    INDEX 01 00:17:47
  TRACK 19 AUDIO
    TITLE "12:cjc123_2011"
    INDEX 01 00:18:33
  TRACK 20 AUDIO
    TITLE "0:"
    INDEX 01 00:19:20
  TRACK 21 AUDIO
    TITLE "12:cjc123_2012"
    INDEX 01 00:20:08
  TRACK 22 AUDIO
    TITLE "0:"
    INDEX 01 00:21:08
  TRACK 23 AUDIO
    TITLE "12:cjc123_2013"
    INDEX 01 00:21:60
  TRACK 24 AUDIO
    TITLE "0:"
    INDEX 01 00:22:56
  TRACK 25 AUDIO
    TITLE "12:cjc123_2014"
    INDEX 01 00:23:34
  TRACK 26 AUDIO
    TITLE "0:"
    INDEX 01 00:24:31
  TRACK 27 AUDIO
    TITLE "12:cjc123_2015"
    INDEX 01 00:25:09
  TRACK 28 AUDIO
    TITLE "0:"
    INDEX 01 00:26:11
  TRACK 29 AUDIO
    TITLE "12:cjc123_2016"
    INDEX 01 00:26:60
  TRACK 30 AUDIO
    TITLE "0:"
    INDEX 01 00:27:59
  TRACK 31 AUDIO
    TITLE "12:cjc123_2017"
    INDEX 01 00:28:29
  TRACK 32 AUDIO
    TITLE "0:"
    INDEX 01 00:29:44
  TRACK 33 AUDIO
    TITLE "12:cjc123_2018"
    INDEX 01 00:30:24
  TRACK 34 AUDIO
    TITLE "0:"
    INDEX 01 00:31:41
  TRACK 35 AUDIO
    TITLE "12:cjc123_2019"
    INDEX 01 00:32:31
  TRACK 36 AUDIO
    TITLE "0:"
    INDEX 01 00:33:24
  TRACK 37 AUDIO
    TITLE "12:cjc123_2020"
    INDEX 01 00:33:73
  TRACK 38 AUDIO
    TITLE "0:"
    INDEX 01 00:35:08
  TRACK 39 AUDIO
    TITLE "12:cjc123_2021"
    INDEX 01 00:35:61
  TRACK 40 AUDIO
    TITLE "0:"
    INDEX 01 00:36:56
  TRACK 41 AUDIO
    TITLE "12:cjc123_2022"
    INDEX 01 00:37:48
  TRACK 42 AUDIO
    TITLE "0:"
    INDEX 01 00:38:39
  TRACK 43 AUDIO
    TITLE "12:cjc123_2023"
    INDEX 01 00:39:37
  TRACK 44 AUDIO
    TITLE "0:"
    INDEX 01 00:40:56
  TRACK 45 AUDIO
    TITLE "12:cjc123_2024"
    INDEX 01 00:41:44
  TRACK 46 AUDIO
    TITLE "0:"
    INDEX 01 00:42:43
  TRACK 47 AUDIO
    TITLE "12:cjc123_2025"
    INDEX 01 00:43:19
  TRACK 48 AUDIO
    TITLE "0:"
    INDEX 01 00:44:32
  TRACK 49 AUDIO
    TITLE "12:cjc123_2026"
    INDEX 01 00:45:16
  TRACK 50 AUDIO
    TITLE "0:"
    INDEX 01 00:46:17
  TRACK 51 AUDIO
    TITLE "12:cjc123_2027"
    INDEX 01 00:47:01
  TRACK 52 AUDIO
    TITLE "0:"
    INDEX 01 00:48:08
  TRACK 53 AUDIO
    TITLE "12:cjc123_2028"
    INDEX 01 00:48:59
  TRACK 54 AUDIO
    TITLE "0:"
    INDEX 01 00:49:53
  TRACK 55 AUDIO
    TITLE "12:cjc123_2029"
    INDEX 01 00:50:33
  TRACK 56 AUDIO
    TITLE "0:"
    INDEX 01 00:51:40
  TRACK 57 AUDIO
    TITLE "12:cjc123_2030"
    INDEX 01 00:52:16
  TRACK 58 AUDIO
    TITLE "0:"
    INDEX 01 00:53:15
  TRACK 59 AUDIO
    TITLE "12:cjc123_2031"
    INDEX 01 00:54:05
  TRACK 60 AUDIO
    TITLE "0:"
    INDEX 01 00:55:03
  TRACK 61 AUDIO
    TITLE "12:cjc123_2032"
    INDEX 01 00:55:36
  TRACK 62 AUDIO
    TITLE "0:"
    INDEX 01 00:56:35
  TRACK 63 AUDIO
    TITLE "12:cjc123_2033"
    INDEX 01 00:57:07
  TRACK 64 AUDIO
    TITLE "0:"
    INDEX 01 00:58:11
  TRACK 65 AUDIO
    TITLE "12:cjc123_2034"
    INDEX 01 00:58:62
  TRACK 66 AUDIO
    TITLE "0:"
    INDEX 01 00:59:49
  TRACK 67 AUDIO
    TITLE "12:cjc123_2035"
    INDEX 01 01:00:31
  TRACK 68 AUDIO
    TITLE "0:"
    INDEX 01 01:01:34
  TRACK 69 AUDIO
    TITLE "12:cjc123_2036"
    INDEX 01 01:02:10
  TRACK 70 AUDIO
    TITLE "0:"
    INDEX 01 01:03:14
  TRACK 71 AUDIO
    TITLE "12:cjc123_2037"
    INDEX 01 01:03:71
  TRACK 72 AUDIO
    TITLE "0:"
    INDEX 01 01:05:01
  TRACK 73 AUDIO
    TITLE "12:cjc123_2038"
    INDEX 01 01:05:56
  TRACK 74 AUDIO
    TITLE "0:"
    INDEX 01 01:07:04
  TRACK 75 AUDIO
    TITLE "12:cjc123_2039"
    INDEX 01 01:07:55
  TRACK 76 AUDIO
    TITLE "0:"
    INDEX 01 01:08:74
  TRACK 77 AUDIO
    TITLE "12:cjc123_2040"
    INDEX 01 01:09:59
  TRACK 78 AUDIO
    TITLE "0:"
    INDEX 01 01:10:53
  TRACK 79 AUDIO
    TITLE "12:cjc123_2041"
    INDEX 01 01:11:25
  TRACK 80 AUDIO
    TITLE "0:"
    INDEX 01 01:12:36
  TRACK 81 AUDIO
    TITLE "12:cjc123_2042"
    INDEX 01 01:13:10
  TRACK 82 AUDIO
    TITLE "0:"
    INDEX 01 01:14:41
